<svg width="88" height="182" viewBox="0 0 88 182" fill="none" xmlns="http://www.w3.org/2000/svg">
<path d="M32.7034 19.8518C37.6311 10.6409 50.2731 10.5889 55.2661 19.7646C64.1389 36.07 75.8052 59.6331 80.987 79.2871C88.2634 106.886 88.3373 147.956 87.8067 168.815C87.6183 176.224 81.5149 182 74.1031 182H13.8149C6.36172 182 0.239418 176.16 0.102751 168.708C-0.280351 147.819 0.0628199 106.85 7.33048 79.2871C12.4905 59.7179 23.9708 36.1749 32.7034 19.8518Z" fill="#1E40AF"/>
<path d="M42.0962 91.4506C54.6267 91.4506 73.9395 90.6122 74.1824 91.4506C79.8398 110.981 80.2486 139.445 79.9153 155.907C79.7659 163.286 73.6791 169 66.2987 169H20.6601C13.2342 169 7.12676 163.218 7.03346 155.793C6.82643 139.316 7.43361 110.943 13.0811 91.4506C13.3748 90.4368 30.7651 91.4506 42.0962 91.4506Z" fill="#D3E4FF"/>
<line x1="10" y1="91" x2="77" y2="91" stroke="#6297F3" stroke-width="2"/>
<ellipse cx="24.5" cy="105.5" rx="14.5" ry="8.5" fill="#EAB308"/>
<ellipse cx="62.5" cy="105.5" rx="14.5" ry="8.5" fill="#D97706"/>
</svg>
